<svg width="14" height="14" viewBox="0 0 14 14" fill="none" xmlns="http://www.w3.org/2000/svg">
<path d="M11.9528 2.04974C9.22314 -0.679908 4.78025 -0.679908 2.05061 2.04974C0.728363 3.3725 0 5.1308 0 7.00081C0 8.87081 0.728363 10.6291 2.05061 11.9514C3.41571 13.3165 5.20871 13.9987 7.00168 13.9987C8.79466 13.9987 10.5877 13.3165 11.9528 11.9514C14.6824 9.22171 14.6824 4.7799 11.9528 2.04974ZM11.1859 11.1845C8.87874 13.4916 5.12462 13.4916 2.81747 11.1845C1.70025 10.0672 1.08468 8.58121 1.08468 7.00081C1.08468 5.4204 1.70025 3.93437 2.81747 2.8166C5.12462 0.509447 8.87874 0.509994 11.1859 2.8166C13.4925 5.12375 13.4925 8.87786 11.1859 11.1845Z" fill="#4F4F4F"/>
<path d="M9.33875 8.49926L7.80336 6.96606L9.33875 5.43285C9.55026 5.22135 9.55026 4.87805 9.3393 4.66597C9.12725 4.45337 8.78394 4.45391 8.57189 4.66542L7.03543 6.19971L5.49897 4.66542C5.28692 4.45391 4.94361 4.45337 4.73156 4.66597C4.52005 4.87802 4.52005 5.22132 4.73211 5.43285L6.2675 6.96606L4.73211 8.49926C4.52005 8.71076 4.52005 9.05407 4.73156 9.26615C4.83733 9.37243 4.9767 9.42504 5.11555 9.42504C5.2544 9.42504 5.39323 9.37188 5.499 9.26667L7.03546 7.73237L8.57192 9.26667C8.67768 9.37243 8.81651 9.42504 8.95536 9.42504C9.09421 9.42504 9.23359 9.37188 9.33935 9.26615C9.55081 9.05407 9.55081 8.71076 9.33875 8.49926Z" fill="#4F4F4F"/>
</svg>
